<?xml version="1.0" standalone="no"?>
<!DOCTYPE svg PUBLIC "-//W3C//DTD SVG 20010904//EN"
 "http://www.w3.org/TR/2001/REC-SVG-20010904/DTD/svg10.dtd">
<svg version="1.0" xmlns="http://www.w3.org/2000/svg"
 width="700.000000pt" height="700.000000pt" viewBox="0 0 700.000000 700.000000"
 preserveAspectRatio="xMidYMid meet">
<metadata>
Created by potrace 1.11, written by Peter Selinger 2001-2013
</metadata>
<g transform="translate(0.000000,700.000000) scale(0.100000,-0.100000)"
fill="#000000" stroke="none">
<path d="M3285 6994 c-203 -20 -276 -28 -375 -45 -610 -105 -1195 -376 -1665
-772 -95 -81 -310 -294 -394 -392 -468 -542 -742 -1176 -833 -1925 -17 -137
-17 -583 0 -720 69 -569 227 -1028 514 -1491 145 -236 311 -440 525 -649 204
-200 371 -332 592 -468 463 -287 922 -445 1491 -514 137 -17 583 -17 720 0
569 69 1028 227 1491 514 360 222 692 528 958 882 323 430 549 960 640 1501
38 223 46 327 46 585 0 258 -8 362 -46 585 -105 627 -382 1216 -800 1700 -84
98 -299 311 -394 392 -518 437 -1148 710 -1845 798 -117 15 -536 28 -625 19z
m1051 -1416 c73 -49 117 -158 97 -240 -16 -66 -1442 -3797 -1469 -3845 -38
-65 -101 -98 -190 -98 -59 0 -77 4 -107 25 -76 51 -120 159 -100 242 5 24 326
871 713 1883 386 1012 711 1864 722 1893 31 83 86 136 168 163 43 14 129 2
166 -23z m-1942 -962 c66 -20 110 -57 140 -118 42 -84 30 -168 -33 -239 -25
-27 -218 -151 -605 -387 -314 -192 -571 -353 -573 -359 -2 -6 249 -165 559
-354 309 -189 577 -357 595 -372 87 -76 97 -223 22 -329 -46 -64 -174 -90
-254 -51 -104 50 -1183 728 -1213 761 -99 111 -137 215 -130 357 6 104 29 175
89 264 39 59 47 64 642 437 331 208 618 383 637 390 46 17 67 17 124 0z m2377
-32 c19 -9 298 -180 620 -380 549 -341 588 -367 627 -419 22 -31 51 -82 63
-113 28 -71 37 -221 19 -290 -16 -58 -71 -166 -108 -209 -15 -18 -282 -192
-617 -401 -452 -283 -601 -371 -635 -377 -115 -21 -194 8 -248 91 -60 90 -52
191 22 269 28 29 224 158 604 396 310 193 560 355 555 360 -4 4 -260 161 -568
349 -361 220 -573 355 -596 380 -56 61 -76 169 -45 243 17 43 87 102 134 116
49 14 132 7 173 -15z"/>
</g>
</svg>
